<?xml version="1.0" encoding="utf-8"?>
<!-- Generator: Adobe Illustrator 25.2.3, SVG Export Plug-In . SVG Version: 6.00 Build 0)  -->
<svg version="1.1" id="Camada_1" xmlns="http://www.w3.org/2000/svg" xmlns:xlink="http://www.w3.org/1999/xlink" x="0px" y="0px"
	 viewBox="0 0 603.3 266.4" style="enable-background:new 0 0 603.3 266.4;" xml:space="preserve">
<style type="text/css">
	.st0{fill:#FFFFFF;}
</style>
<g>
	<path class="st0" d="M327.4,192.8c0,0-0.5,0.4-1.2,1.1c-1.1,1-2.8,2.5-4.3,3.7c-0.7,0.6-1.4,1.2-1.9,1.6c-0.3,0.2-0.5,0.3-0.6,0.4
		l-0.1,0l0,0l0.4,0.7l-0.3-0.7l-0.1,0l0.4,0.7l-0.3-0.7l0.7,1.7l-0.3-1.8c-0.3,0-0.4,0.1-0.4,0.1l0.7,1.7l-0.3-1.8l0,0l0.1,0.6
		l0-0.6l-0.1,0l0.1,0.6l0-0.6h0c-0.1,0-0.4,0-0.9-0.1c-1.7-0.4-4.6-1.5-7.3-2.6c-1.3-0.5-2.6-1.1-3.7-1.5c-0.5-0.2-1-0.4-1.5-0.6
		c-0.4-0.2-0.8-0.3-1.2-0.4v0c-0.4-0.1-0.6-0.1-0.9-0.1c-0.8,0-1.5,0.1-2.5,0.3c-3.3,0.7-8.8,2.3-13.7,4.1c-2.5,0.9-4.8,1.8-6.7,2.7
		c-0.9,0.4-1.7,0.9-2.4,1.3c-0.3,0.2-0.7,0.4-1,0.7c-0.3,0.3-0.6,0.5-0.9,1c-0.4,0.7-0.6,1.4-0.6,2.1c0,1.4,0.6,2.5,1.2,3.5
		c1.1,1.5,2.6,2.9,4.5,4c1.9,1.1,4.2,1.8,6.6,1.8c0.5,0,0.9,0,1.4-0.1l0,0c2.4-0.3,5-0.9,7.6-1.5c2.5-0.5,5-1,6.6-1
		c0.6,0,1.2,0.1,1.5,0.2c0.3,0.1,0.5,0.2,0.5,0.2c2.1,2.1,6.4,6.6,10.9,11.1c4.5,4.5,9.1,9.2,12.2,11.9c0.8,0.8,2,1.1,3,1.1
		c1.3,0,2.5-0.5,3.6-1.1c1.9-1.1,3.8-2.8,5.6-4.8c2.8-2.9,5.5-6.5,7.5-9.3c2-2.8,3.3-4.9,3.4-4.9l-3.7-2.4l-0.1,0.2
		c-0.7,1-3.8,5.7-7.3,10c-1.8,2.2-3.7,4.3-5.4,5.7c-0.8,0.7-1.6,1.3-2.3,1.7c-0.6,0.4-1.1,0.5-1.3,0.5l-0.1,0l0,0l0,0l0,0l0,0l0,0
		l0,0c-2.9-2.6-7.6-7.2-12-11.7c-4.5-4.5-8.7-8.9-10.9-11.1c-0.7-0.7-1.6-1.1-2.5-1.4c-0.9-0.2-1.8-0.3-2.7-0.3
		c-2.3,0-4.9,0.5-7.5,1c-2.6,0.5-5.2,1.1-7.2,1.4l0,0c-0.3,0-0.5,0.1-0.8,0.1c-1.9,0-4.1-0.9-5.7-2.1c-0.8-0.6-1.4-1.3-1.8-1.8
		c-0.2-0.3-0.3-0.5-0.4-0.7c-0.1-0.2-0.1-0.3-0.1-0.3h-0.3l0.2,0.1l0-0.1h-0.3l0.2,0.1l-0.5-0.1l0.5,0.3l0.1-0.1l-0.5-0.1l0.5,0.3v0
		l-0.6-0.4l0.5,0.5l0.1-0.1l-0.6-0.4l0.5,0.5c0,0,0.5-0.4,1.2-0.7c1.2-0.7,3.1-1.5,5.3-2.3c3.3-1.3,7.1-2.5,10.4-3.5
		c1.6-0.5,3.1-0.9,4.3-1.2c0.6-0.1,1.1-0.2,1.5-0.3c0.4-0.1,0.7-0.1,0.8-0.1h0l0-1.1l-0.3,1l0.2,0l0-1.1l-0.3,1l0,0
		c0.1,0,0.5,0.1,0.9,0.3c1.6,0.6,4.5,1.8,7.3,2.9c1.4,0.5,2.8,1,4,1.4c0.6,0.2,1.2,0.4,1.8,0.5c0.6,0.1,1.1,0.2,1.7,0.2
		c0.2,0,0.4,0,0.6,0l0,0c0.3-0.1,0.5-0.1,0.6-0.2c0.3-0.1,0.4-0.2,0.6-0.3c0.6-0.4,1.4-1,2.3-1.7c2.7-2.2,6.4-5.5,6.4-5.5
		L327.4,192.8L327.4,192.8z M303.8,257.3l-7.2-7.3l-3.1,3.1l7.2,7.3L303.8,257.3z M315.7,253.4l-12.5-13.5l-3.2,3l12.5,13.5
		L315.7,253.4z M326.4,247.1l-14.9-15.4l-3.2,3.1l14.9,15.4L326.4,247.1z M277,258.8l-1.6,1.6c1.3,1.3,3,1.9,4.7,1.9
		c1.7,0,3.4-0.7,4.7-1.9l3.9-3.9c1.1-1.1,1.7-2.7,1.7-4.1c0-2-0.9-3.9-2.4-5.4c-1.5-1.5-3.4-2.4-5.4-2.4c-1.5,0-3,0.5-4.1,1.7
		c-0.9,0.9-0.9,2.3,0,3.1c0.9,0.9,2.3,0.9,3.1,0c1.1-1.1,1.7-2.7,1.7-4.1c0-2-0.9-3.9-2.4-5.4c-1.5-1.5-3.4-2.4-5.4-2.4
		c-1.5,0-3,0.5-4.1,1.7c-0.9,0.9-0.9,2.3,0,3.1c0.9,0.9,2.3,0.9,3.1,0c1.1-1.1,1.7-2.7,1.7-4.1c0-2-0.9-3.9-2.4-5.4
		c-1.5-1.5-3.4-2.4-5.4-2.4c-1.5,0-3,0.5-4.1,1.7c-0.9,0.9-0.9,2.3,0,3.1c0.9,0.9,2.3,0.9,3.1,0c1.1-1.1,1.7-2.7,1.7-4.1
		c0-2-0.9-3.9-2.4-5.4c-1.5-1.5-3.4-2.4-5.4-2.4c-1.5,0-3,0.5-4.1,1.7l-3.9,3.9c-1.3,1.3-1.9,3-1.9,4.7c0,1.7,0.7,3.4,1.9,4.7
		l21.9,21.9L277,258.8l1.6-1.6l-21.9-21.9c-0.4-0.4-0.6-1-0.6-1.6c0-0.6,0.2-1.1,0.6-1.6l3.9-3.9c0.3-0.3,0.5-0.4,1-0.4
		c0.6,0,1.5,0.3,2.2,1.1c0.8,0.8,1.1,1.7,1.1,2.2c0,0.4-0.1,0.7-0.4,1c-0.4,0.4-0.6,1-0.6,1.6c0,0.6,0.2,1.1,0.6,1.6
		c0.4,0.4,1,0.6,1.6,0.6c0.6,0,1.1-0.2,1.6-0.6c0.3-0.3,0.5-0.4,1-0.4c0.6,0,1.5,0.3,2.2,1.1c0.8,0.8,1.1,1.7,1.1,2.2
		c0,0.4-0.1,0.7-0.4,1c-0.4,0.4-0.6,1-0.6,1.6c0,0.6,0.2,1.1,0.6,1.6c0.4,0.4,1,0.6,1.6,0.6c0.6,0,1.1-0.2,1.6-0.6
		c0.3-0.3,0.5-0.4,1-0.4c0.6,0,1.5,0.3,2.2,1.1c0.8,0.8,1.1,1.7,1.1,2.2c0,0.4-0.1,0.7-0.4,1c-0.4,0.4-0.6,1-0.6,1.6
		s0.2,1.1,0.6,1.6c0.4,0.4,1,0.6,1.6,0.6c0.6,0,1.1-0.2,1.6-0.6c0.3-0.3,0.5-0.4,1-0.4c0.6,0,1.5,0.3,2.2,1.1
		c0.8,0.8,1.1,1.7,1.1,2.2c0,0.4-0.1,0.7-0.4,1l-3.9,3.9c-0.4,0.4-1,0.6-1.6,0.6c-0.6,0-1.1-0.2-1.6-0.6L277,258.8L277,258.8z
		 M283.4,258.5l1.4,1.4l0,0l3.4,3.4c1,1,2.1,1.8,3.2,2.3c1.1,0.5,2.3,0.8,3.4,0.8c2.2,0,4.1-0.9,5.6-2.1c1.5-1.2,2.7-2.8,3.6-4.4
		l-1.9-1.1l-1,2c1.6,0.8,3.2,1.2,4.8,1.2c2.2,0,4.3-0.7,6-1.8c1.7-1.1,3.1-2.6,4-4.3l-2-1l-1,2c1.4,0.7,2.8,1,4.2,1
		c2.9,0,5.3-1.3,6.9-3c0.8-0.8,1.5-1.8,2-2.8c0.5-1,0.8-2,0.8-3.1c0-0.2,0-0.4,0-0.7l-2.2,0.3l0.1,2.2c5.8-0.4,10.2-5.1,10.2-10.7
		c0-2.2-0.7-4.5-2.2-6.5l-3.5,2.6c1,1.3,1.4,2.6,1.4,3.9c0,3.1-2.6,6.1-6.1,6.2c-0.6,0-1.2,0.3-1.6,0.8c-0.4,0.5-0.6,1.1-0.5,1.7
		l0,0.1c0,0.2-0.1,0.6-0.3,1.1c-0.4,0.8-1.1,1.7-2,2.3c-0.9,0.6-1.9,1-3,1c-0.7,0-1.4-0.2-2.2-0.6c-1.1-0.5-2.4-0.1-2.9,1
		c-0.5,0.9-1.4,1.9-2.4,2.6c-1.1,0.7-2.4,1.1-3.6,1.1c-0.9,0-1.9-0.2-2.8-0.7c-1-0.5-2.3-0.2-2.9,0.9c-0.7,1.2-1.6,2.4-2.6,3.1
		c-1,0.8-1.9,1.2-2.8,1.2c-0.5,0-1-0.1-1.6-0.4c-0.6-0.3-1.3-0.7-2-1.5l-3.4-3.4l0,0l-1.4-1.4L283.4,258.5L283.4,258.5z
		 M247.8,220.2l4.7,4.9l1.6-1.5l-2.1,0.6c0.6,2.2,1.9,4.2,3.3,5.8l3.4-2.8c-1.1-1.3-2.1-3-2.5-4.3c-0.1-0.3-0.3-0.7-0.5-0.9
		l-4.7-4.9L247.8,220.2L247.8,220.2z M281,203.5l-7.9-8l-3.1,3.1l7.9,7.9L281,203.5z M264.4,232.2l-6.9,7.2l3.2,3.1l6.9-7.2
		L264.4,232.2z M264.4,232.2l-6.9,7.2l3.2,3.1l6.9-7.2L264.4,232.2z M271.5,239.2l-6.9,7.2l3.2,3.1l6.9-7.2L271.5,239.2z
		 M278.5,246.2l-6.9,7.2l3.2,3.1l6.9-7.2L278.5,246.2z"/>
</g>
<g>
	<path class="st0" d="M173.4,16.7h40.4v12.3h-26.4v8.6h23.9v11.6h-23.9v18h-14V16.7z"/>
	<path class="st0" d="M216.5,16.7h40.6v11.9h-26.8v7.7h24.3v11h-24.3v8h27.1v11.9h-41V16.7z"/>
	<path class="st0" d="M261.4,16.7h14.1v50.5h-14.1V16.7z"/>
	<path class="st0" d="M281.1,16.7H305c7.7,0,13.1,2,16.5,5.5c3,2.9,4.5,6.8,4.5,11.8v0.1c0,7.7-4.1,12.8-10.4,15.5l12.1,17.6h-16.2
		l-10.2-15.3h-6.1v15.3h-14V16.7z M304.3,40.9c4.8,0,7.5-2.3,7.5-6v-0.1c0-4-2.9-6-7.6-6h-9.2v12.1H304.3z"/>
	<path class="st0" d="M345.9,16.3h13.5l21.5,50.9h-15l-3.7-9h-19.5l-3.6,9h-14.7L345.9,16.3z M337.2,11.3c1.6-7.1,4.1-10.8,9.1-10.8
		c4.3,0,9.5,2.8,11.9,2.8c2,0,2.8-1.1,3.8-3.3l6.6,1.8c-1.5,7.1-4.1,10.7-9,10.7c-4.3,0-9.6-2.8-11.9-2.8c-2,0-2.9,1.1-3.8,3.4
		L337.2,11.3z M358.2,47.3l-5.6-14.4l-5.7,14.4H358.2z"/>
	<path class="st0" d="M377.2,42.1v-0.1c0-14.5,11.7-26.3,27.3-26.3c15.6,0,27.1,11.6,27.1,26.1v0.1c0,14.5-11.7,26.3-27.3,26.3
		S377.2,56.6,377.2,42.1z M417.4,42.1v-0.1c0-7.3-5.3-13.6-13-13.6c-7.7,0-12.8,6.2-12.8,13.5v0.1c0,7.3,5.3,13.6,12.9,13.6
		C412.2,55.6,417.4,49.4,417.4,42.1z"/>
</g>
<g>
	<path class="st0" d="M0,125.3v-0.1c0-14.7,11.3-26.3,26.6-26.3c10.3,0,17,4.3,21.4,10.5l-10.5,8.2c-2.9-3.6-6.2-5.9-11-5.9
		c-7.1,0-12.1,6-12.1,13.4v0.1c0,7.6,5,13.5,12.1,13.5c5.3,0,8.4-2.5,11.4-6.1l10.5,7.5c-4.8,6.6-11.2,11.4-22.4,11.4
		C11.6,151.4,0,140.4,0,125.3z"/>
	<path class="st0" d="M50.8,99.9h23.9c7.7,0,13.1,2,16.5,5.5c3,2.9,4.5,6.8,4.5,11.8v0.1c0,7.7-4.1,12.8-10.4,15.5l12.1,17.6H81.1
		L71,135.1h-6.1v15.3h-14V99.9z M74.1,124.1c4.8,0,7.5-2.3,7.5-6V118c0-4-2.9-6-7.6-6h-9.2v12.1H74.1z"/>
	<path class="st0" d="M99.1,99.9h40.6v11.9H113v7.7h24.3v11H113v8h27.1v11.9h-41V99.9z M122,84.7l13.1,4l-10.7,7.7h-10.2L122,84.7z"
		/>
	<path class="st0" d="M143.7,99.9h19.5c18,0,28.5,10.4,28.5,25v0.1c0,14.6-10.6,25.4-28.8,25.4h-19.2V99.9z M163.4,138
		c8.4,0,13.9-4.6,13.9-12.8v-0.1c0-8.1-5.6-12.8-13.9-12.8h-5.7V138H163.4z"/>
	<path class="st0" d="M195.6,99.9h14.1v50.5h-14.1V99.9z"/>
	<path class="st0" d="M227.7,112.2h-15.2V99.9h44.3v12.3h-15.2v38.3h-14V112.2z"/>
	<path class="st0" d="M255.5,125.3v-0.1c0-14.5,11.7-26.3,27.3-26.3s27.1,11.6,27.1,26.1v0.1c0,14.5-11.7,26.3-27.3,26.3
		C267,151.4,255.5,139.8,255.5,125.3z M295.6,125.3v-0.1c0-7.3-5.3-13.6-13-13.6c-7.7,0-12.8,6.2-12.8,13.5v0.1
		c0,7.3,5.3,13.6,12.9,13.6C290.5,138.8,295.6,132.6,295.6,125.3z"/>
	<path class="st0" d="M330,99.9h19.5c18,0,28.5,10.4,28.5,25v0.1c0,14.6-10.6,25.4-28.8,25.4H330V99.9z M349.7,138
		c8.4,0,13.9-4.6,13.9-12.8v-0.1c0-8.1-5.6-12.8-13.9-12.8H344V138H349.7z"/>
	<path class="st0" d="M381.9,99.9H396v50.5h-14.1V99.9z"/>
	<path class="st0" d="M399.9,125.3v-0.1c0-14.7,11.6-26.3,27.2-26.3c8.9,0,15.2,2.7,20.5,7.4l-8.2,9.9c-3.6-3-7.2-4.8-12.2-4.8
		c-7.3,0-12.9,6.1-12.9,13.9v0.1c0,8.2,5.7,14,13.7,14c3.4,0,6-0.7,8.1-2.1v-6.1h-10v-10.3h23.2v22.7c-5.3,4.4-12.8,7.8-21.9,7.8
		C411.6,151.4,399.9,140.6,399.9,125.3z"/>
	<path class="st0" d="M453.8,99.9h14.1v50.5h-14.1V99.9z"/>
	<path class="st0" d="M485.8,112.2h-15.2V99.9H515v12.3h-15.2v38.3h-14V112.2z"/>
	<path class="st0" d="M528.5,99.5H542l21.5,50.9h-15l-3.7-9h-19.5l-3.6,9H507L528.5,99.5z M540.8,130.5l-5.6-14.4l-5.7,14.4H540.8z"
		/>
	<path class="st0" d="M564.8,99.9h14v38.3h24.5v12.3h-38.5V99.9z"/>
</g>
<g>
	<path class="st0" d="M283.3,73.1h7.6c6.4,0,10.8,4.4,10.8,10.1v0.1c0,5.7-4.4,10.1-10.8,10.1h-7.6V73.1z M290.9,90.1
		c4.3,0,7-2.9,7-6.8v-0.1c0-4-2.8-6.9-7-6.9h-4v13.8H290.9z"/>
	<path class="st0" d="M304.5,73.1h15v3.2h-11.5v5.3h10.2v3.2h-10.2v5.5h11.6v3.2h-15.2V73.1z"/>
</g>
<g>
	<path class="st0" d="M119.4,167.4h9.1v1.3h-7.6v4.3h6.8v1.3h-6.8v4.4h7.7v1.3h-9.2V167.4z"/>
	<path class="st0" d="M131.4,167.4h1.3l7.9,10v-10h1.4V180h-1.1l-8.1-10.3V180h-1.4V167.4z"/>
	<path class="st0" d="M145,173.7L145,173.7c0-3.6,2.7-6.5,6.3-6.5c2.3,0,3.6,0.8,4.9,2l-1,1c-1.1-1-2.2-1.7-3.9-1.7
		c-2.8,0-4.9,2.3-4.9,5.1v0c0,2.9,2.1,5.2,4.9,5.2c1.7,0,2.8-0.7,4-1.8l0.9,0.9c-1.3,1.3-2.7,2.2-5,2.2
		C147.6,180.2,145,177.3,145,173.7z"/>
	<path class="st0" d="M157.8,173.7L157.8,173.7c0-3.5,2.6-6.5,6.4-6.5c3.8,0,6.4,3,6.4,6.4v0c0,3.5-2.6,6.5-6.4,6.5
		C160.4,180.2,157.8,177.2,157.8,173.7z M169.2,173.7L169.2,173.7c0-2.9-2.1-5.2-4.9-5.2s-4.9,2.3-4.9,5.1v0c0,2.8,2.1,5.2,4.9,5.2
		S169.2,176.6,169.2,173.7z"/>
	<path class="st0" d="M173.6,167.4h1.3l7.9,10v-10h1.4V180h-1.1l-8.1-10.3V180h-1.4V167.4z"/>
	<path class="st0" d="M191.1,168.7h-4.2v-1.3h9.9v1.3h-4.2V180h-1.4V168.7z"/>
	<path class="st0" d="M199.4,167.4h5.4c1.5,0,2.8,0.5,3.6,1.3c0.6,0.6,1,1.5,1,2.5v0c0,2.1-1.4,3.3-3.4,3.7l3.9,5.1H208l-3.6-4.9
		h-3.6v4.9h-1.4V167.4z M204.7,173.8c1.9,0,3.2-1,3.2-2.6v0c0-1.5-1.2-2.5-3.2-2.5h-3.9v5.1H204.7z"/>
	<path class="st0" d="M212.3,167.4h9.1v1.3h-7.6v4.3h6.8v1.3h-6.8v4.4h7.7v1.3h-9.2V167.4z"/>
	<path class="st0" d="M234.4,167.3h1.3l5.7,12.6h-1.5l-1.5-3.3h-6.8l-1.5,3.3h-1.5L234.4,167.3z M237.9,175.4L235,169l-2.9,6.4
		H237.9z"/>
	<path class="st0" d="M252.9,178.8c-1.1,0.8-2.4,1.3-4,1.3c-3.8,0-6.4-3-6.4-6.4v0c0-3.5,2.6-6.5,6.4-6.5c3.8,0,6.4,3,6.4,6.4v0
		c0,1.6-0.5,3.1-1.5,4.2l1.7,1.4l-1,1.1L252.9,178.8z M251.9,177.9l-2.3-2l0.9-1.1l2.3,2.1c0.7-0.9,1.1-2,1.1-3.2v0
		c0-2.8-2.1-5.2-4.9-5.2s-4.9,2.3-4.9,5.1v0c0,2.8,2.1,5.2,4.9,5.2C250.1,178.9,251.1,178.5,251.9,177.9z"/>
	<path class="st0" d="M258.2,174.7v-7.3h1.4v7.2c0,2.7,1.4,4.2,3.8,4.2c2.3,0,3.8-1.4,3.8-4.1v-7.3h1.4v7.2c0,3.7-2.1,5.6-5.2,5.6
		C260.3,180.2,258.2,178.3,258.2,174.7z"/>
	<path class="st0" d="M272.1,167.4h1.4V180h-1.4V167.4z"/>
	<path class="st0" d="M281.7,178.1l0.9-1c1.3,1.2,2.6,1.8,4.3,1.8c1.7,0,2.8-0.9,2.8-2.1v0c0-1.2-0.6-1.8-3.3-2.4
		c-2.9-0.6-4.2-1.6-4.2-3.6v0c0-2,1.7-3.4,4.1-3.4c1.8,0,3.1,0.5,4.4,1.5l-0.8,1.1c-1.2-0.9-2.3-1.4-3.6-1.4c-1.6,0-2.7,0.9-2.7,2v0
		c0,1.2,0.6,1.8,3.4,2.4c2.8,0.6,4.1,1.6,4.1,3.5v0c0,2.2-1.8,3.5-4.3,3.5C284.9,180.1,283.2,179.5,281.7,178.1z"/>
	<path class="st0" d="M294,167.4h9.1v1.3h-7.6v4.3h6.8v1.3h-6.8v4.4h7.7v1.3H294V167.4z"/>
	<path class="st0" d="M305.8,174.7v-7.3h1.4v7.2c0,2.7,1.4,4.2,3.8,4.2c2.3,0,3.8-1.4,3.8-4.1v-7.3h1.4v7.2c0,3.7-2.1,5.6-5.2,5.6
		C308,180.2,305.8,178.3,305.8,174.7z"/>
	<path class="st0" d="M325,167.4h9v1.3h-7.6v4.5h6.8v1.3h-6.8v5.5H325V167.4z"/>
	<path class="st0" d="M336.9,167.4h1.4V180h-1.4V167.4z"/>
	<path class="st0" d="M342,167.4h1.3l7.9,10v-10h1.4V180h-1.1l-8.1-10.3V180H342V167.4z"/>
	<path class="st0" d="M360.8,167.3h1.3l5.7,12.6h-1.5l-1.5-3.3H358l-1.5,3.3h-1.5L360.8,167.3z M364.3,175.4l-2.8-6.4l-2.9,6.4
		H364.3z"/>
	<path class="st0" d="M370.3,167.4h1.3l7.9,10v-10h1.4V180h-1.1l-8.1-10.3V180h-1.4V167.4z"/>
	<path class="st0" d="M383.9,173.7L383.9,173.7c0-3.6,2.7-6.5,6.3-6.5c2.3,0,3.6,0.8,4.9,2l-1,1c-1.1-1-2.2-1.7-3.9-1.7
		c-2.8,0-4.9,2.3-4.9,5.1v0c0,2.9,2.1,5.2,4.9,5.2c1.7,0,2.8-0.7,4-1.8l0.9,0.9c-1.3,1.3-2.7,2.2-5,2.2
		C386.6,180.2,383.9,177.3,383.9,173.7z"/>
	<path class="st0" d="M397.8,167.4h1.4V180h-1.4V167.4z"/>
	<path class="st0" d="M407.5,167.3h1.3l5.7,12.6H413l-1.5-3.3h-6.8l-1.5,3.3h-1.5L407.5,167.3z M411,175.4l-2.8-6.4l-2.9,6.4H411z"
		/>
	<path class="st0" d="M417,167.4h1.4l4.6,6.8l4.6-6.8h1.4V180h-1.4v-10.2l-4.6,6.7H423l-4.6-6.7V180H417V167.4z"/>
	<path class="st0" d="M432.6,167.4h9.1v1.3H434v4.3h6.8v1.3H434v4.4h7.7v1.3h-9.2V167.4z"/>
	<path class="st0" d="M444.6,167.4h1.3l7.9,10v-10h1.4V180h-1.1l-8.1-10.3V180h-1.4V167.4z"/>
	<path class="st0" d="M462.1,168.7h-4.2v-1.3h9.9v1.3h-4.2V180h-1.4V168.7z"/>
	<path class="st0" d="M469,173.7L469,173.7c0-3.5,2.6-6.5,6.4-6.5c3.8,0,6.4,3,6.4,6.4v0c0,3.5-2.6,6.5-6.4,6.5S469,177.2,469,173.7
		z M480.3,173.7L480.3,173.7c0-2.9-2.1-5.2-4.9-5.2s-4.9,2.3-4.9,5.1v0c0,2.8,2.1,5.2,4.9,5.2S480.3,176.6,480.3,173.7z"/>
</g>
</svg>
